<?xml version="1.0" encoding="UTF-8" standalone="no"?>
<svg
   xmlns:dc="http://purl.org/dc/elements/1.1/"
   xmlns:cc="http://creativecommons.org/ns#"
   xmlns:rdf="http://www.w3.org/1999/02/22-rdf-syntax-ns#"
   xmlns:svg="http://www.w3.org/2000/svg"
   xmlns="http://www.w3.org/2000/svg"
   xmlns:sodipodi="http://sodipodi.sourceforge.net/DTD/sodipodi-0.dtd"
   xmlns:inkscape="http://www.inkscape.org/namespaces/inkscape"
   id="Camada_1"
   data-name="Camada 1"
   viewBox="0 0 1080 1080"
   version="1.1"
   sodipodi:docname="logo_with_text_1.svg"
   inkscape:version="1.0.2-2 (e86c870879, 2021-01-15)">
  <metadata
     id="metadata63">
    <rdf:RDF>
      <cc:Work
         rdf:about="">
        <dc:format>image/svg+xml</dc:format>
        <dc:type
           rdf:resource="http://purl.org/dc/dcmitype/StillImage" />
        <dc:title>logo-larissa-final</dc:title>
      </cc:Work>
    </rdf:RDF>
  </metadata>
  <sodipodi:namedview
     pagecolor="#ffffff"
     bordercolor="#666666"
     borderopacity="1"
     objecttolerance="10"
     gridtolerance="10"
     guidetolerance="10"
     inkscape:pageopacity="0"
     inkscape:pageshadow="2"
     inkscape:window-width="2323"
     inkscape:window-height="1321"
     id="namedview61"
     showgrid="false"
     inkscape:zoom="0.81481481"
     inkscape:cx="540"
     inkscape:cy="540"
     inkscape:window-x="69"
     inkscape:window-y="-9"
     inkscape:window-maximized="1"
     inkscape:current-layer="Camada_1" />
  <defs
     id="defs4">
    <style
       id="style2">.cls-1{fill:#735d78;}.cls-2{fill:#fff;}</style>
  </defs>
  <title
     id="title6">logo-larissa-final</title>
  <path
     class="cls-2"
     d="M452.69,517.33a178.21,178.21,0,0,1-31.71-2.9,164.64,164.64,0,0,1-76.63-35.55c-10.74,11.05-21.59,21.81-32.69,32.78-6.89,6.8-16.5,7.55-23.91,1.86-3.42-2.62-5-6.19-6.22-9.06l-.22-.49a5.17,5.17,0,0,1-.42-2V335.09a5.34,5.34,0,0,1,.05-.69c.21-1.52.41-3,.61-4.56.44-3.3.88-6.7,1.43-10.07a169,169,0,0,1,45.22-91.19c25.13-26.38,55.83-43.25,91.25-50.17,4.75-.93,9.55-1.6,14.2-2.25,2.14-.3,4.27-.59,6.39-.91a4.74,4.74,0,0,1,.75-.06h22.36a5,5,0,0,1,1.38.2c.33.09.65.2,1,.31l.41.14A165.31,165.31,0,0,1,527.52,193c38.54,19.37,66.48,49.46,83.05,89.44,11.12,26.86,14.82,55.73,11,85.84a167.78,167.78,0,0,1-28.77,74.78,170.59,170.59,0,0,1-70.66,59.07A166.23,166.23,0,0,1,452.69,517.33Zm-161.8-16.41c.87,2,1.68,3.69,2.95,4.67,3.48,2.67,7.41,2.29,10.79-1,11.09-11,21.92-21.7,32.62-32.71,4.28-4.41,8.67-4.63,13.43-.69a154.82,154.82,0,0,0,72.08,33.45c33.18,6,65.22,2.11,95.22-11.56a160.67,160.67,0,0,0,66.58-55.64A157.93,157.93,0,0,0,611.64,367c3.61-28.36.14-55.53-10.31-80.75-15.62-37.7-42-66.07-78.3-84.33a155.19,155.19,0,0,0-58-16.15,10.36,10.36,0,0,1-2.67-.61H441.16c-2,.31-4.08.59-6.12.88-4.52.63-9.19,1.28-13.67,2.15-33.35,6.52-62.26,22.41-85.93,47.25a159.28,159.28,0,0,0-42.59,85.89c-.52,3.23-1,6.56-1.38,9.79-.19,1.42-.38,2.85-.58,4.28Z"
     id="path10" />
  <path
     class="cls-2"
     d="M627.31,617.33a166.23,166.23,0,0,1-69.44-15.19,170.58,170.58,0,0,1-70.66-59.07,167.78,167.78,0,0,1-28.77-74.78c-3.83-30.1-.13-59,11-85.84,16.57-40,44.51-70.07,83.05-89.44a165.31,165.31,0,0,1,61.6-17.17l.41-.14c.33-.11.65-.22,1-.31a4.61,4.61,0,0,1,1.38-.2h22.36a4.74,4.74,0,0,1,.75.06c2.12.32,4.26.61,6.39.91,4.65.65,9.45,1.32,14.2,2.25,35.42,6.92,66.12,23.79,91.25,50.17A169,169,0,0,1,797,419.77c.55,3.37,1,6.77,1.43,10.07.2,1.52.4,3,.61,4.56a5.34,5.34,0,0,1,.05.69V602a5.17,5.17,0,0,1-.42,2l-.22.49c-1.25,2.87-2.8,6.44-6.23,9.06-7.4,5.69-17,4.94-23.9-1.86-11.1-11-22-21.73-32.69-32.78A164.8,164.8,0,0,1,659,614.44,179.21,179.21,0,0,1,627.31,617.33Zm108.54-49c2.36,0,4.65,1.16,6.9,3.48,10.7,11,21.54,21.76,32.62,32.71,3.38,3.34,7.31,3.72,10.79,1.05,1.27-1,2.08-2.68,3-4.67V435.43c-.2-1.43-.39-2.86-.58-4.28-.42-3.23-.86-6.56-1.38-9.79a159.28,159.28,0,0,0-42.59-85.89c-23.67-24.84-52.58-40.73-85.93-47.25-4.48-.87-9.15-1.52-13.66-2.15-2.05-.29-4.09-.57-6.13-.88H617.66a10.26,10.26,0,0,1-2.67.61A155.19,155.19,0,0,0,557,302c-36.34,18.26-62.68,46.63-78.3,84.33-10.45,25.22-13.92,52.39-10.31,80.75a157.93,157.93,0,0,0,27.08,70.36A160.67,160.67,0,0,0,562,593c30,13.67,62,17.56,95.22,11.56a154.82,154.82,0,0,0,72.08-33.45A10.39,10.39,0,0,1,735.85,568.35Zm-1,9.78Z"
     id="path12" />
  <path
     class="cls-2"
     d="M612.17,425.06c-2.65,0-5.34-.1-8.09-.3-24.52-1.8-40.3-11.38-57-21.53-17.47-10.61-35.53-21.58-66.17-24.86s-53.34,3.22-66.95,9.26c-15.79,7-23.88,15.21-24.71,16.42a5,5,0,0,1-6.86,1.64,5,5,0,0,1-1.65-6.89c3.67-6,37.93-37.16,101.24-30.38,32.85,3.53,52.74,15.61,70.29,26.26,16.33,9.92,30.44,18.49,52.55,20.11,37.38,2.74,64.6-15.68,79.23-25.57a69.52,69.52,0,0,1,8.9-5.51,5,5,0,1,1,4.11,9.11,72.3,72.3,0,0,0-7.41,4.68C676.1,406.66,648.9,425.06,612.17,425.06Z"
     id="path14" />
  <circle
     class="cls-2"
     cx="540"
     cy="396.27"
     r="32.61"
     id="circle16" />
  <path
     class="cls-2"
     d="M156.13,815.34a6.06,6.06,0,0,1-4.56-1.87,6.4,6.4,0,0,1-1.82-4.63V724.22a6.31,6.31,0,0,1,1.88-4.63,6.13,6.13,0,0,1,4.5-1.87,6.4,6.4,0,0,1,6.5,6.5v78.12h45.25a6.5,6.5,0,1,1,0,13Z"
     id="path18" />
  <path
     class="cls-2"
     d="M251,815.84a30.09,30.09,0,0,1-16.37-4.56,32.43,32.43,0,0,1-11.44-12.38A36.82,36.82,0,0,1,219,781.22a34.69,34.69,0,0,1,4.57-17.75A33.71,33.71,0,0,1,235.94,751a34.19,34.19,0,0,1,17.56-4.56,33.64,33.64,0,0,1,29.82,17,34.78,34.78,0,0,1,4.56,17.75H283a36.82,36.82,0,0,1-4.18,17.68,32.51,32.51,0,0,1-11.44,12.38A30.1,30.1,0,0,1,251,815.84Zm2.5-11.25a21.36,21.36,0,0,0,11.38-3.06,21.68,21.68,0,0,0,7.87-8.38,24.59,24.59,0,0,0,2.88-11.93,25,25,0,0,0-2.88-12.07,21.72,21.72,0,0,0-7.87-8.37,22.56,22.56,0,0,0-22.69,0,22.12,22.12,0,0,0-8,8.37,24.54,24.54,0,0,0-2.94,12.07,24.19,24.19,0,0,0,2.94,11.93,22.08,22.08,0,0,0,8,8.38A21.46,21.46,0,0,0,253.5,804.59Zm28,10.88a6.2,6.2,0,0,1-6.37-6.38V790l2.37-13.25,10.38,4.5v27.87a6.21,6.21,0,0,1-6.38,6.38Z"
     id="path20" />
  <path
     class="cls-2"
     d="M306.88,815.34a6.44,6.44,0,0,1-4.63-1.56,6.22,6.22,0,0,1-1.62-4.69V753.22a5.65,5.65,0,0,1,6.25-6.25,5.52,5.52,0,0,1,6.25,6.25v55.87a6.42,6.42,0,0,1-1.56,4.63A6.25,6.25,0,0,1,306.88,815.34Zm-.13-42.75a24.94,24.94,0,0,1,3.69-13.44,27,27,0,0,1,9.94-9.43,27.68,27.68,0,0,1,13.75-3.5q7.5,0,11.19,2.43t2.81,5.82a4.74,4.74,0,0,1-1.44,2.68,4.87,4.87,0,0,1-2.44,1.19,7.35,7.35,0,0,1-3-.12,35,35,0,0,0-14.37-.25,19.45,19.45,0,0,0-10.06,5.12,13,13,0,0,0-3.69,9.5Z"
     id="path22" />
  <path
     class="cls-2"
     d="M362.75,735.84a8.33,8.33,0,1,1,5.81-2.44A7.9,7.9,0,0,1,362.75,735.84Zm0,79.5a6.19,6.19,0,0,1-6.37-6.37V753.34a6.13,6.13,0,0,1,1.81-4.62,6.35,6.35,0,0,1,10.94,4.62V809a6.33,6.33,0,0,1-1.75,4.56A6.14,6.14,0,0,1,362.75,815.34Z"
     id="path24" />
  <path
     class="cls-2"
     d="M411.5,815.84a47.13,47.13,0,0,1-16.19-2.69,31,31,0,0,1-11.56-6.81,5.43,5.43,0,0,1-1.56-4.56,6,6,0,0,1,2.44-4.19,6.55,6.55,0,0,1,4.93-1.69,6.78,6.78,0,0,1,4.19,2.19,19.87,19.87,0,0,0,6.81,4.44A25.77,25.77,0,0,0,411,804.59q7.25,0,11.06-2.37c2.54-1.58,3.86-3.63,3.94-6.13s-1.1-4.66-3.56-6.5-6.94-3.33-13.44-4.5q-12.63-2.49-18.31-7.5A15.69,15.69,0,0,1,385,765.34a15.23,15.23,0,0,1,3.75-10.56,22.72,22.72,0,0,1,9.63-6.25,36.56,36.56,0,0,1,12.25-2.06,38.13,38.13,0,0,1,14.62,2.62,25,25,0,0,1,10.13,7.25,5.82,5.82,0,0,1,1.62,4.19,4.84,4.84,0,0,1-2.12,3.69,6.1,6.1,0,0,1-4.75.87,8.9,8.9,0,0,1-4.63-2.25,17,17,0,0,0-6.75-4.12,28.3,28.3,0,0,0-8.37-1.13,21,21,0,0,0-9.32,1.88q-3.81,1.88-3.81,5.5a7.26,7.26,0,0,0,1.19,4.06q1.19,1.82,4.69,3.25a59.36,59.36,0,0,0,10.25,2.81,56,56,0,0,1,14.81,4.75,19.81,19.81,0,0,1,7.81,6.69,16.35,16.35,0,0,1,2.38,8.81,18.39,18.39,0,0,1-3.07,10.38,21,21,0,0,1-9,7.37Q420.37,815.85,411.5,815.84Z"
     id="path26" />
  <path
     class="cls-2"
     d="M473.13,815.84a47.09,47.09,0,0,1-16.19-2.69,31,31,0,0,1-11.56-6.81,5.43,5.43,0,0,1-1.57-4.56,6,6,0,0,1,2.44-4.19,6.57,6.57,0,0,1,4.94-1.69,6.8,6.8,0,0,1,4.19,2.19,19.67,19.67,0,0,0,6.81,4.44,25.7,25.7,0,0,0,10.44,2.06q7.25,0,11.06-2.37c2.54-1.58,3.85-3.63,3.94-6.13s-1.11-4.66-3.57-6.5-6.93-3.33-13.43-4.5q-12.63-2.49-18.32-7.5a15.68,15.68,0,0,1-5.68-12.25,15.23,15.23,0,0,1,3.75-10.56,22.68,22.68,0,0,1,9.62-6.25,36.6,36.6,0,0,1,12.25-2.06,38.18,38.18,0,0,1,14.63,2.62A25,25,0,0,1,497,756.34a5.79,5.79,0,0,1,1.63,4.19,4.88,4.88,0,0,1-2.13,3.69,6.09,6.09,0,0,1-4.75.87,8.91,8.91,0,0,1-4.62-2.25,17.11,17.11,0,0,0-6.75-4.12,28.32,28.32,0,0,0-8.38-1.13,20.93,20.93,0,0,0-9.31,1.88q-3.81,1.88-3.81,5.5a7.25,7.25,0,0,0,1.18,4.06c.79,1.21,2.36,2.29,4.69,3.25A59.36,59.36,0,0,0,475,775.09a55.9,55.9,0,0,1,14.81,4.75,19.85,19.85,0,0,1,7.82,6.69,16.34,16.34,0,0,1,2.37,8.81,18.38,18.38,0,0,1-3.06,10.38,21,21,0,0,1-9,7.37Q482,815.85,473.13,815.84Z"
     id="path28" />
  <path
     class="cls-2"
     d="M538.38,815.84A30.1,30.1,0,0,1,522,811.28a32.43,32.43,0,0,1-11.44-12.38,36.82,36.82,0,0,1-4.18-17.68,34.78,34.78,0,0,1,4.56-17.75A33.71,33.71,0,0,1,523.31,751a34.22,34.22,0,0,1,17.57-4.56,33.61,33.61,0,0,1,29.81,17,34.78,34.78,0,0,1,4.56,17.75h-4.87a36.82,36.82,0,0,1-4.19,17.68,32.43,32.43,0,0,1-11.44,12.38A30.09,30.09,0,0,1,538.38,815.84Zm2.5-11.25a21.32,21.32,0,0,0,11.37-3.06,21.78,21.78,0,0,0,7.88-8.38A24.7,24.7,0,0,0,563,781.22a25.06,25.06,0,0,0-2.87-12.07,21.82,21.82,0,0,0-7.88-8.37,22.56,22.56,0,0,0-22.69,0,22.12,22.12,0,0,0-8,8.37,24.54,24.54,0,0,0-2.93,12.07,24.19,24.19,0,0,0,2.93,11.93,22.08,22.08,0,0,0,8,8.38A21.47,21.47,0,0,0,540.88,804.59Zm28,10.88a6.21,6.21,0,0,1-6.38-6.38V790l2.38-13.25,10.37,4.5v27.87a6.2,6.2,0,0,1-6.37,6.38Z"
     id="path30" />
  <path
     class="cls-2"
     d="M642.75,816.59a31.33,31.33,0,0,1-15.56-3.81,27,27,0,0,1-10.63-10.63,31.3,31.3,0,0,1-3.81-15.56,6.24,6.24,0,0,1,1.87-4.69,6.45,6.45,0,0,1,4.63-1.81,6.2,6.2,0,0,1,6.5,6.5,19.94,19.94,0,0,0,2.19,9.5,16.15,16.15,0,0,0,6,6.44,16.66,16.66,0,0,0,8.81,2.31,17,17,0,0,0,8.87-2.31,16.11,16.11,0,0,0,6.07-6.44,20.05,20.05,0,0,0,2.18-9.5V724.22a6.34,6.34,0,0,1,1.82-4.69,6.16,6.16,0,0,1,4.56-1.81,6.54,6.54,0,0,1,4.75,1.81,6.23,6.23,0,0,1,1.87,4.69v62.37A30.92,30.92,0,0,1,669,802.15a27.63,27.63,0,0,1-10.63,10.63A31.22,31.22,0,0,1,642.75,816.59Z"
     id="path32" />
  <path
     class="cls-2"
     d="M721.37,815.84a35.28,35.28,0,0,1-17.87-4.44,32.09,32.09,0,0,1-12.19-12.25,38.71,38.71,0,0,1,0-36A32.23,32.23,0,0,1,703.5,750.9a38,38,0,0,1,35.62,0,32.23,32.23,0,0,1,12.19,12.25,38.94,38.94,0,0,1,.06,36,31.64,31.64,0,0,1-12.12,12.25A35.35,35.35,0,0,1,721.37,815.84Zm0-11.25a21.89,21.89,0,0,0,11.5-3,21,21,0,0,0,7.82-8.25,25.33,25.33,0,0,0,2.81-12.12A25.73,25.73,0,0,0,740.69,769a20.88,20.88,0,0,0-7.82-8.31,23.54,23.54,0,0,0-23,0A21.28,21.28,0,0,0,702,769a25.18,25.18,0,0,0-2.88,12.19A24.79,24.79,0,0,0,702,793.34a21.39,21.39,0,0,0,7.87,8.25A21.94,21.94,0,0,0,721.37,804.59Z"
     id="path34" />
  <path
     class="cls-2"
     d="M776.12,735.84a8.33,8.33,0,1,1,5.81-2.44A7.9,7.9,0,0,1,776.12,735.84Zm0,79.5a6.19,6.19,0,0,1-6.37-6.37V753.34a6.13,6.13,0,0,1,1.81-4.62,6.35,6.35,0,0,1,10.94,4.62V809a6.33,6.33,0,0,1-1.75,4.56A6.14,6.14,0,0,1,776.12,815.34Z"
     id="path36" />
  <path
     class="cls-2"
     d="M831,815.84a34.7,34.7,0,0,1-17.82-4.56,32.93,32.93,0,0,1-12.25-12.38,35.11,35.11,0,0,1-4.43-17.68,36.4,36.4,0,0,1,4.37-18,31.94,31.94,0,0,1,12-12.32,34.23,34.23,0,0,1,17.5-4.43,31.87,31.87,0,0,1,13.5,2.81,32.44,32.44,0,0,1,11,8.44,4.5,4.5,0,0,1,1.25,4.12,6.49,6.49,0,0,1-2.75,3.75,4.69,4.69,0,0,1-3.87.81,7.58,7.58,0,0,1-3.88-2.18,20.11,20.11,0,0,0-15.25-6.5,21.44,21.44,0,0,0-11.25,2.93,20.36,20.36,0,0,0-7.62,8.19,26.26,26.26,0,0,0-2.75,12.38,25,25,0,0,0,2.81,12,21.39,21.39,0,0,0,7.81,8.31A21.82,21.82,0,0,0,831,804.59a25.14,25.14,0,0,0,7.68-1.06,18.46,18.46,0,0,0,6.07-3.31,7.62,7.62,0,0,1,4.12-1.82,5,5,0,0,1,3.75,1.19,6,6,0,0,1,2.38,3.94,4.68,4.68,0,0,1-1.5,3.94Q844.5,815.84,831,815.84Z"
     id="path38" />
  <path
     class="cls-2"
     d="M901,815.84a37.57,37.57,0,0,1-18.44-4.44,32.35,32.35,0,0,1-12.63-12.25,34.87,34.87,0,0,1-4.56-17.93,36.86,36.86,0,0,1,4.31-18.07,31.66,31.66,0,0,1,11.94-12.25,34.23,34.23,0,0,1,17.5-4.43,31.27,31.27,0,0,1,16.75,4.31,28.07,28.07,0,0,1,10.69,11.87,39.48,39.48,0,0,1,3.69,17.44,5.24,5.24,0,0,1-1.63,3.94,5.71,5.71,0,0,1-4.12,1.56H874.12v-10h50l-5.12,3.5a27,27,0,0,0-2.5-11.19,18.21,18.21,0,0,0-17.38-10.68,22.8,22.8,0,0,0-12.19,3.12,20.21,20.21,0,0,0-7.68,8.56,28,28,0,0,0-2.63,12.32,23.86,23.86,0,0,0,3.13,12.25,22.77,22.77,0,0,0,8.62,8.5A25.17,25.17,0,0,0,901,805.09a23.66,23.66,0,0,0,7.93-1.44,24.5,24.5,0,0,0,6.57-3.31,7.19,7.19,0,0,1,4.06-1.44,5.46,5.46,0,0,1,3.81,1.32,5.89,5.89,0,0,1,2.25,4.12,4.44,4.44,0,0,1-2,3.88,34.68,34.68,0,0,1-10.56,5.5A37.7,37.7,0,0,1,901,815.84Z"
     id="path40" />
  <path
     class="cls-2"
     d="M391.57,891.75a1.81,1.81,0,0,1-1.88-1.88V844.81a1.8,1.8,0,0,1,.53-1.37,1.85,1.85,0,0,1,1.35-.5h12.5a16.07,16.07,0,0,1,8.09,2,14.34,14.34,0,0,1,5.53,5.53,16.15,16.15,0,0,1,2,8.09,16.38,16.38,0,0,1-2,8.13,14.35,14.35,0,0,1-5.53,5.56,16.18,16.18,0,0,1-8.09,2H393.44v15.62a1.91,1.91,0,0,1-.5,1.35A1.8,1.8,0,0,1,391.57,891.75Zm1.87-21.25h10.63a12.1,12.1,0,0,0,6.15-1.53,11.17,11.17,0,0,0,4.19-4.22,12.3,12.3,0,0,0,1.53-6.19,12.16,12.16,0,0,0-1.53-6.16,11.21,11.21,0,0,0-4.19-4.18,12.1,12.1,0,0,0-6.15-1.53H393.44Z"
     id="path42" />
  <path
     class="cls-2"
     d="M438.5,892.12a21.55,21.55,0,0,1-6.81-1.18,13.11,13.11,0,0,1-5.94-4,1.72,1.72,0,0,1-.4-1.35,1.77,1.77,0,0,1,.78-1.22,1.75,1.75,0,0,1,1.34-.31,1.78,1.78,0,0,1,1.16.69,9.62,9.62,0,0,0,4.4,3,18.3,18.3,0,0,0,5.66.84q5.25,0,7.44-1.87a5.61,5.61,0,0,0,2.18-4.38,4.74,4.74,0,0,0-2.34-4,17.53,17.53,0,0,0-7.22-2.28q-6.24-.87-9.25-3.38a7.39,7.39,0,0,1-3-5.81,8.78,8.78,0,0,1,1.56-5.28,9.55,9.55,0,0,1,4.29-3.25,16.5,16.5,0,0,1,6.21-1.09,15.41,15.41,0,0,1,7.19,1.53,13.13,13.13,0,0,1,4.75,4.09,1.54,1.54,0,0,1,.35,1.34,1.77,1.77,0,0,1-1,1.16,2.08,2.08,0,0,1-1.32.19,1.92,1.92,0,0,1-1.18-.75,10.22,10.22,0,0,0-3.78-3,12.09,12.09,0,0,0-5.16-1,9.86,9.86,0,0,0-6.13,1.68,5,5,0,0,0-2.18,4.07,4.65,4.65,0,0,0,.9,2.84,6.87,6.87,0,0,0,3,2.06,24.61,24.61,0,0,0,5.5,1.35,21.22,21.22,0,0,1,7.41,2.12,9.85,9.85,0,0,1,3.87,3.47,8.2,8.2,0,0,1,1.16,4.22,7.6,7.6,0,0,1-1.88,5.12,11.85,11.85,0,0,1-4.93,3.35A18.62,18.62,0,0,1,438.5,892.12Z"
     id="path44" />
  <path
     class="cls-2"
     d="M463.44,850.37a2.77,2.77,0,0,1-2-.84,2.85,2.85,0,0,1-.85-2.09,2.61,2.61,0,0,1,.91-2.16,3.17,3.17,0,0,1,2-.72,3.09,3.09,0,0,1,2,.72,2.61,2.61,0,0,1,.91,2.16,2.81,2.81,0,0,1-.85,2.09A2.84,2.84,0,0,1,463.44,850.37Zm.06,41.38a1.81,1.81,0,0,1-1.87-1.88V859.44a1.77,1.77,0,0,1,.53-1.38,1.86,1.86,0,0,1,3.22,1.38v30.43a1.91,1.91,0,0,1-.5,1.35A1.84,1.84,0,0,1,463.5,891.75Z"
     id="path46" />
  <path
     class="cls-2"
     d="M493,892.12a16.56,16.56,0,0,1-14.78-8.56,17.73,17.73,0,0,1-2.22-8.87,19,19,0,0,1,2.06-8.94,15.9,15.9,0,0,1,5.69-6.22,15.29,15.29,0,0,1,8.31-2.28,17.26,17.26,0,0,1,7.32,1.53,15.56,15.56,0,0,1,5.75,4.66,1.59,1.59,0,0,1,.37,1.31,1.64,1.64,0,0,1-.81,1.12,1.59,1.59,0,0,1-1.25.35,1.82,1.82,0,0,1-1.19-.72,12.73,12.73,0,0,0-10.19-4.75,11.55,11.55,0,0,0-6.46,1.81,12.14,12.14,0,0,0-4.32,4.94,16.14,16.14,0,0,0-1.53,7.19,14.74,14.74,0,0,0,1.69,7.09,13,13,0,0,0,4.66,5,12.78,12.78,0,0,0,6.9,1.84,15.48,15.48,0,0,0,4.85-.75,10.61,10.61,0,0,0,4-2.31,2.19,2.19,0,0,1,1.25-.56,1.41,1.41,0,0,1,1.19.44,1.78,1.78,0,0,1,.66,1.28,1.5,1.5,0,0,1-.53,1.22A16.22,16.22,0,0,1,493,892.12Z"
     id="path48" />
  <path
     class="cls-2"
     d="M530.56,892.12a17.7,17.7,0,0,1-9-2.28,16.67,16.67,0,0,1-6.25-6.25,18.65,18.65,0,0,1,0-17.87,16.67,16.67,0,0,1,6.25-6.25,17.7,17.7,0,0,1,9-2.28,17.49,17.49,0,0,1,8.94,2.28,16.66,16.66,0,0,1,6.22,6.25,18.65,18.65,0,0,1,0,17.87,16.66,16.66,0,0,1-6.22,6.25A17.49,17.49,0,0,1,530.56,892.12Zm0-3.5a13.32,13.32,0,0,0,11.91-6.84,15.15,15.15,0,0,0,0-14.25,13.32,13.32,0,0,0-11.91-6.84,13.48,13.48,0,0,0-11.93,6.84,14.86,14.86,0,0,0,0,14.25,13.48,13.48,0,0,0,11.93,6.84Zm-.93-36.12a1.91,1.91,0,0,1-1.94-1.94,2,2,0,0,1,.44-1.25l7.68-7.69a2,2,0,0,1,2.75,0,1.85,1.85,0,0,1,.57,1.41,1.93,1.93,0,0,1-.13.65,1.78,1.78,0,0,1-.44.66L530.88,852A1.72,1.72,0,0,1,529.63,852.5Z"
     id="path50" />
  <path
     class="cls-2"
     d="M564.25,891.75a7.14,7.14,0,0,1-4.22-1.31,8.64,8.64,0,0,1-2.87-3.63,13,13,0,0,1-1-5.37V844.81a1.77,1.77,0,0,1,.54-1.37,1.84,1.84,0,0,1,1.34-.5,1.73,1.73,0,0,1,1.87,1.87v36.63a8.38,8.38,0,0,0,1.22,4.71,3.68,3.68,0,0,0,3.16,1.85h1.56a1.44,1.44,0,0,1,1.13.5,2,2,0,0,1,.43,1.37,1.87,1.87,0,0,1-.5,1.35,1.8,1.8,0,0,1-1.37.53Z"
     id="path52" />
  <path
     class="cls-2"
     d="M588,892.12a17.7,17.7,0,0,1-9-2.28,16.6,16.6,0,0,1-6.25-6.25,18.65,18.65,0,0,1,0-17.87,16.6,16.6,0,0,1,6.25-6.25,18.73,18.73,0,0,1,17.91,0,16.8,16.8,0,0,1,6.22,6.25,18.65,18.65,0,0,1,0,17.87,16.8,16.8,0,0,1-6.22,6.25A17.54,17.54,0,0,1,588,892.12Zm0-3.5a13.32,13.32,0,0,0,11.91-6.84,15.15,15.15,0,0,0,0-14.25,13.93,13.93,0,0,0-18.91-5,13.62,13.62,0,0,0-4.94,5,14.93,14.93,0,0,0,0,14.25A13.51,13.51,0,0,0,588,888.62Z"
     id="path54" />
  <path
     class="cls-2"
     d="M630.44,892.12a18,18,0,0,1-9.07-2.25,16.37,16.37,0,0,1-6.18-6.18,17.84,17.84,0,0,1-2.25-9,17.61,17.61,0,0,1,2.31-9.07,16.71,16.71,0,0,1,6.28-6.18,19,19,0,0,1,17.94,0,16.44,16.44,0,0,1,6.15,6.18,18,18,0,0,1,2.25,9.07l-2.18,2.5a15.32,15.32,0,0,1-1.94,7.75,13.79,13.79,0,0,1-5.38,5.28A16.07,16.07,0,0,1,630.44,892.12Zm.25,12.69a18.11,18.11,0,0,1-14.88-6.87,2.11,2.11,0,0,1-.5-1.32,1.46,1.46,0,0,1,.63-1.18,1.92,1.92,0,0,1,1.46-.32,1.79,1.79,0,0,1,1.29.82,15.16,15.16,0,0,0,12,5.37,12.84,12.84,0,0,0,6.9-1.87,13.22,13.22,0,0,0,4.78-5.16,15.33,15.33,0,0,0,1.75-7.34V877l1.69-2.31h2.06v12.25a18.51,18.51,0,0,1-2.25,9.12,17,17,0,0,1-6.12,6.41A16.72,16.72,0,0,1,630.69,904.81Zm-.25-16.19a13.93,13.93,0,0,0,7.09-1.78,12.63,12.63,0,0,0,4.84-4.94,14.58,14.58,0,0,0,1.75-7.21,14.78,14.78,0,0,0-1.75-7.29,12.61,12.61,0,0,0-4.84-4.93,13.93,13.93,0,0,0-7.09-1.78,14.11,14.11,0,0,0-7.13,1.78,12.55,12.55,0,0,0-4.87,4.93,14.78,14.78,0,0,0-1.75,7.29,14.58,14.58,0,0,0,1.75,7.21,12.57,12.57,0,0,0,4.87,4.94A14.11,14.11,0,0,0,630.44,888.62Z"
     id="path56" />
  <path
     class="cls-2"
     d="M672.87,892.12a17.7,17.7,0,0,1-9-2.28,16.67,16.67,0,0,1-6.25-6.25,18.65,18.65,0,0,1,0-17.87,16.67,16.67,0,0,1,6.25-6.25,17.7,17.7,0,0,1,9-2.28,17.51,17.51,0,0,1,8.94,2.28,16.73,16.73,0,0,1,6.22,6.25,17.65,17.65,0,0,1,2.28,9l-1.56,2.5a14.13,14.13,0,0,1-2.1,7.62,15.11,15.11,0,0,1-5.65,5.34A16.47,16.47,0,0,1,672.87,892.12Zm0-3.5a13.32,13.32,0,0,0,11.91-6.84,15.15,15.15,0,0,0,0-14.25,13.32,13.32,0,0,0-11.91-6.84,13.51,13.51,0,0,0-11.94,6.84,14.93,14.93,0,0,0,0,14.25,13.51,13.51,0,0,0,11.94,6.84Zm15.63,3.13a1.91,1.91,0,0,1-1.41-.53,1.85,1.85,0,0,1-.53-1.35V878.44l1.19-3.75h2.56v15.18a1.91,1.91,0,0,1-.5,1.35A1.72,1.72,0,0,1,688.5,891.75Z"
     id="path58" />
</svg>
